<?xml version="1.0" encoding="UTF-8"?>
<svg id="Layer_1" xmlns="http://www.w3.org/2000/svg" version="1.1" viewBox="0 0 1920 1080">
  <!-- Generator: Adobe Illustrator 30.2.1, SVG Export Plug-In . SVG Version: 2.1.1 Build 1)  -->
  <defs>
    <style>
      .st0 {
        fill: #00bd2b;
      }
    </style>
  </defs>
  <path d="M814.18,653.1h0c-27.6-7.77-56.27,8.3-64.05,35.89l-33.1,117.49c-2.73,9.7-17.02,7.73-17.02-2.35v-272.83c0-21.57-17.49-39.06-39.06-39.06h0c-21.57,0-39.06,17.49-39.06,39.06v151.38c0,6.14-4.98,11.12-11.12,11.12h-12.13c-6.14,0-11.12-4.98-11.12-11.12v-181.38c0-21.57-17.49-39.06-39.06-39.06h0c-21.57,0-39.06,17.49-39.06,39.06v181.38c0,6.14-4.98,11.12-11.12,11.12h-12.13c-6.14,0-11.12-4.98-11.12-11.12v-161.38c0-21.57-17.49-39.06-39.06-39.06h0c-21.57,0-39.06,17.49-39.06,39.06v161.38c0,6.14-4.98,11.12-11.12,11.12h-12.13c-6.14,0-11.12-4.98-11.12-11.12v-102.31c0-21.57-17.49-39.06-39.06-39.06h0c-21.57,0-39.06,17.49-39.06,39.06v393.13h502.7v-20.64c0-8.02,1.1-16.01,3.28-23.74l59.71-211.97c7.77-27.6-8.3-56.27-35.89-64.05Z"/>
  <circle class="st0" cx="323.46" cy="583.59" r="24.29"/>
  <circle class="st0" cx="435.96" cy="524.53" r="24.29"/>
  <circle class="st0" cx="548.46" cy="504.53" r="24.29"/>
  <circle class="st0" cx="660.96" cy="534.53" r="24.29"/>
  <circle class="st0" cx="800.72" cy="699.42" r="24.29"/>
  <path d="M1184.37,653.1h0c27.6-7.77,56.27,8.3,64.05,35.89l33.1,117.49c2.73,9.7,17.02,7.73,17.02-2.35v-272.83c0-21.57,17.49-39.06,39.06-39.06h0c21.57,0,39.06,17.49,39.06,39.06v151.38c0,6.14,4.98,11.12,11.12,11.12h12.13c6.14,0,11.12-4.98,11.12-11.12v-181.38c0-21.57,17.49-39.06,39.06-39.06h0c21.57,0,39.06,17.49,39.06,39.06v181.38c0,6.14,4.98,11.12,11.12,11.12h12.13c6.14,0,11.12-4.98,11.12-11.12v-161.38c0-21.57,17.49-39.06,39.06-39.06h0c21.57,0,39.06,17.49,39.06,39.06v161.38c0,6.14,4.98,11.12,11.12,11.12h12.13c6.14,0,11.12-4.98,11.12-11.12v-102.31c0-21.57,17.49-39.06,39.06-39.06h0c21.57,0,39.06,17.49,39.06,39.06v393.13h-502.7v-20.64c0-8.02-1.1-16.01-3.28-23.74l-59.71-211.97c-7.77-27.6,8.3-56.27,35.89-64.05Z"/>
  <circle class="st0" cx="1675.09" cy="583.59" r="24.29"/>
  <circle class="st0" cx="1562.59" cy="524.53" r="24.29"/>
  <circle class="st0" cx="1450.09" cy="504.53" r="24.29"/>
  <circle class="st0" cx="1337.59" cy="534.53" r="24.29"/>
  <circle class="st0" cx="1197.82" cy="699.42" r="24.29"/>
</svg>